<svg width="235" height="79" viewBox="0 0 235 79" fill="none" xmlns="http://www.w3.org/2000/svg">
<g clip-path="url(#clip0_3_611)">
<path d="M17.5165 21.3852C27.1701 21.3852 35.0331 29.2482 35.0331 38.9797C35.0331 48.7111 27.1701 56.5741 17.5165 56.5741C7.86294 56.5741 -6.10352e-05 48.789 -6.10352e-05 38.9797C-6.10352e-05 29.1704 7.86294 21.3852 17.5165 21.3852ZM154.847 20.996V51.8252C154.847 54.1607 155.781 54.7835 157.571 55.2506L157.649 55.6399H147.762V51.8252C146.594 54.6278 144.181 56.3405 141.067 56.3405C135.773 56.3405 132.27 51.5138 132.27 44.3514C132.27 40.3031 133.437 36.8777 135.617 34.3086C137.719 31.8173 140.6 30.4939 143.792 30.4939C145.349 30.4939 146.672 30.8053 147.762 31.5059V27.3019C147.762 26.3677 147.529 25.7449 147.061 25.2778C146.439 24.7328 145.427 24.4993 143.87 24.655H143.792V24.2657L154.847 20.996ZM192.371 30.5717V51.8252C192.371 54.1607 193.305 54.7835 195.096 55.2506V55.6399H185.209V51.7473C184.041 54.55 181.472 56.3405 178.591 56.3405C175.166 56.3405 172.986 54.7835 172.13 51.7473L171.974 50.9688C171.818 50.1903 171.74 49.4118 171.74 48.6333V37.2669C171.74 34.7757 171.195 33.9972 169.016 33.8415H168.938V33.4522L178.825 30.5717V48.4776C178.825 51.1245 179.993 52.6037 182.172 52.6037C183.496 52.6037 184.586 51.903 185.209 50.7352V37.2669C185.209 34.6978 184.742 33.9193 182.951 33.7636H182.873V33.3744L192.371 30.5717ZM120.981 30.4939C123.628 30.4939 126.197 31.4281 127.91 33.063C129.856 34.9314 130.868 37.6562 130.946 41.2374V41.3152H116.077C115.765 46.4534 118.957 50.6574 123.161 50.8131C126.197 51.0466 128.844 49.1782 130.323 46.142L130.713 46.2977C129.856 51.9809 126.509 56.2627 120.67 56.2627C114.052 56.2627 110.316 50.7352 110.16 43.8065V42.0159C110.471 38.9797 111.405 36.2549 113.04 34.2307C114.052 32.9851 115.22 32.0509 116.621 31.4281C117.789 30.8053 119.502 30.4939 120.903 30.4939H120.981ZM223.979 30.5717C228.183 30.5717 230.752 33.2187 230.752 37.734V52.2144C230.752 53.9272 231.53 54.7835 233.477 55.2506H233.554V55.6399H223.589V37.9676C223.589 35.1649 222.577 33.7636 220.475 33.7636C218.763 33.7636 217.906 35.0092 217.439 36.0992C217.517 36.6441 217.595 37.1891 217.595 37.734V52.448C217.595 54.2386 218.14 54.8614 219.697 55.2506H219.775V55.6399H210.51V37.9676C210.51 35.1649 209.42 33.7636 207.396 33.7636C205.761 33.7636 204.905 34.9314 204.516 35.8656V52.5258C204.516 54.3164 205.061 54.9392 206.618 55.3285H206.696V55.7177H197.431V37.1891C197.431 34.6978 196.809 33.9193 194.707 33.7636H194.629V33.3744L204.516 30.6496V34.7757C205.528 32.1287 207.863 30.5717 210.822 30.5717C214.169 30.5717 216.505 32.2066 217.283 35.1649C218.296 32.3623 220.865 30.5717 223.979 30.5717ZM81.9776 22.553L91.2419 44.2736L100.506 22.553H110.471L110.393 22.9423L110.28 22.9674C108.563 23.3587 107.669 24.0007 107.669 26.1342V52.6037C107.824 54.3164 108.758 54.8614 110.393 55.2506H110.471V55.6399H97.7814V55.2506H97.8593C99.4942 54.8614 100.428 54.3164 100.584 52.6037V26.8348L88.3614 55.562H87.6607L75.7495 27.6133V51.9809C75.7495 54.1607 76.6837 54.7835 78.4743 55.1728H78.5521V55.562H71.2341V55.1728H71.3119C73.1025 54.7835 74.0367 54.1607 74.0367 51.9809V26.1342C74.0367 23.9543 73.1025 23.3315 71.3119 22.9423H71.2341V22.553H81.9776ZM166.914 30.5717V51.8252L166.915 51.9689C166.953 54.1866 167.885 54.7933 169.638 55.2506L169.716 55.6399H159.829V37.2669C159.829 34.7757 159.284 33.9972 157.104 33.8415H157.026V33.4522L166.914 30.5717ZM45.5431 22.3973C50.292 22.3973 54.2624 29.871 54.2624 38.9797C54.2624 48.1661 50.3699 55.562 45.5431 55.562C40.7163 55.562 36.8237 48.1661 36.8237 38.9797C36.8237 29.7932 40.7163 22.3973 45.5431 22.3973ZM58.9335 24.11C60.7241 24.11 62.0476 30.8053 62.0476 38.9797C62.0476 47.1541 60.6463 53.8493 58.9335 53.8493C57.2379 53.8493 55.8475 47.2873 55.8199 39.2245L55.8195 38.9797C55.8195 30.8053 57.2208 24.11 58.9335 24.11ZM144.959 31.8952C141.845 31.8952 139.899 36.0213 139.899 42.4051C139.899 45.4413 140.444 48.0883 141.378 49.8789C142.235 51.5916 143.48 52.5258 144.882 52.5258C146.283 52.5258 147.295 51.903 147.762 50.7352V33.6079C147.217 32.518 146.205 31.8952 144.959 31.8952ZM120.903 31.973C118.101 31.973 116.466 35.3206 116.232 39.9917V40.0696H124.718C124.874 36.4106 124.251 33.9972 123.083 32.8294C122.46 32.2844 121.76 31.973 120.903 31.973ZM163.099 21.2295C165.357 21.2295 167.069 22.9423 167.069 25.2C167.069 27.4576 165.357 29.1704 163.099 29.1704C160.841 29.1704 159.128 27.4576 159.128 25.2C159.128 22.9423 160.841 21.2295 163.099 21.2295Z" fill="white"/>
</g>
<defs>
<clipPath id="clip0_3_611">
<rect width="234.508" height="77.6303" fill="white" transform="translate(0 0.779785)"/>
</clipPath>
</defs>
</svg>
