<svg width="289" height="79" viewBox="0 0 289 79" fill="none" xmlns="http://www.w3.org/2000/svg">
<g clip-path="url(#clip0_3_857)">
<path d="M10.6017 36.4144C10.4972 36.2777 10.3592 36.1703 10.2011 36.1025C10.0429 36.0347 9.86999 36.0088 9.69895 36.0274C9.5279 36.046 9.36454 36.1084 9.22465 36.2086C9.08477 36.3087 8.97309 36.4433 8.90042 36.5993L0.279975 53.8348C0.201444 53.9918 0.164366 54.1664 0.172261 54.3418C0.180156 54.5173 0.232762 54.6878 0.325085 54.8372C0.417407 54.9865 0.546382 55.1099 0.699764 55.1954C0.853145 55.2809 1.02584 55.3258 1.20146 55.3258H13.205C13.3972 55.3303 13.5866 55.2789 13.7502 55.1777C13.9138 55.0766 14.0445 54.9302 14.1265 54.7562C16.7158 49.4057 15.1466 41.2703 10.6017 36.4144Z" fill="white"/>
<path d="M16.9239 20.7378C14.7759 24.0428 13.5241 27.8496 13.2915 31.7844C13.0588 35.7192 13.8531 39.6469 15.5966 43.1821L21.3836 54.7561C21.4692 54.9273 21.6007 55.0712 21.7635 55.1718C21.9262 55.2724 22.1138 55.3257 22.3051 55.3257H34.3065C34.4821 55.3257 34.6548 55.2808 34.8082 55.1953C34.9616 55.1097 35.0905 54.9864 35.1829 54.837C35.2752 54.6877 35.3278 54.5171 35.3357 54.3417C35.3436 54.1663 35.3065 53.9917 35.228 53.8346C35.228 53.8346 19.0821 21.5391 18.6763 20.7313C18.5961 20.5669 18.4711 20.4284 18.3158 20.3318C18.1604 20.2351 17.981 20.1842 17.798 20.1849C17.6151 20.1856 17.436 20.2378 17.2814 20.3356C17.1268 20.4334 17.0029 20.5728 16.9239 20.7378V20.7378Z" fill="white"/>
<path d="M157.694 34.557C157.694 38.8249 159.674 42.2134 167.418 43.7093C172.039 44.6793 173.007 45.4251 173.007 46.9652C173.007 48.4612 172.037 49.4295 168.782 49.4295C164.849 49.3588 160.994 48.3158 157.562 46.3935V53.345C159.895 54.4891 162.974 55.7651 168.694 55.7651C176.791 55.7651 180.003 52.1546 180.003 46.789L157.694 34.557ZM180.003 46.789C180.003 41.729 177.319 39.3525 169.751 37.7251C165.571 36.8009 164.559 35.8773 164.559 34.557C164.559 32.8865 166.054 32.1811 168.826 32.1811C172.171 32.1811 175.471 33.1931 178.595 34.6012V27.9568C175.599 26.5935 172.337 25.917 169.046 25.977C161.566 25.977 157.694 29.2329 157.694 34.557" fill="white"/>
<path d="M261.707 26.4173V55.326H267.867V33.2815L270.463 39.1332L279.175 55.326H286.919V26.4173H280.759V45.0738L278.427 39.6613L271.431 26.4173H261.707Z" fill="white"/>
<path d="M222.528 26.4173H215.795V55.326H222.528V26.4173Z" fill="white"/>
<path d="M208.028 46.789C208.028 41.729 205.344 39.3525 197.776 37.7251C193.595 36.8009 192.583 35.8773 192.583 34.557C192.583 32.8865 194.079 32.1811 196.851 32.1811C200.196 32.1811 203.496 33.1931 206.62 34.6012V27.9568C203.624 26.5935 200.362 25.917 197.071 25.977C189.591 25.977 185.719 29.2329 185.719 34.557C185.719 38.8249 187.699 42.2134 195.443 43.7093C200.064 44.6793 201.031 45.4251 201.031 46.9652C201.031 48.4612 200.061 49.4295 196.807 49.4295C192.874 49.3588 189.019 48.3158 185.587 46.3935V53.345C187.919 54.4891 190.999 55.7651 196.719 55.7651C204.815 55.7651 208.028 52.1546 208.028 46.789" fill="white"/>
<path d="M105.395 26.4173V55.326H119.232L121.411 49.0777H112.171V26.4173H105.395Z" fill="white"/>
<path d="M78.0582 26.4173V32.6651H85.5384V55.326H92.3142V32.6651H100.323V26.4173H78.0582Z" fill="white"/>
<path d="M68.2323 26.4173H59.3522L49.2713 55.326H56.9698L58.3989 50.4572C61.9185 51.4907 65.6611 51.4907 69.1808 50.4572L70.6099 55.326H78.3099L68.2323 26.4173ZM63.792 45.2441C62.5379 45.244 61.2904 45.0646 60.0872 44.7111L63.792 32.0955L67.4968 44.7155C66.2934 45.0674 65.0458 45.2454 63.792 45.2441V45.2441Z" fill="white"/>
<path d="M143.089 26.4173H134.209L124.128 55.326H131.828L133.257 50.4572C136.777 51.4907 140.52 51.4907 144.039 50.4572L145.468 55.326H153.168L143.089 26.4173ZM138.649 45.2441C137.395 45.244 136.147 45.0646 134.944 44.7111L138.649 32.0955L142.354 44.7155C141.15 45.0674 139.903 45.2454 138.649 45.2441Z" fill="white"/>
<path d="M246.787 26.4173H237.907L227.826 55.326H235.527L236.956 50.4572C240.475 51.4907 244.218 51.4907 247.738 50.4572L249.167 55.326H256.867L246.787 26.4173ZM242.344 45.2441C241.09 45.244 239.843 45.0646 238.64 44.7111L242.344 32.0955L246.049 44.7155C244.846 45.0674 243.598 45.2454 242.344 45.2441V45.2441Z" fill="white"/>
</g>
<defs>
<clipPath id="clip0_3_857">
<rect width="287.879" height="77.6303" fill="white" transform="translate(0.173584 0.779785)"/>
</clipPath>
</defs>
</svg>
